<svg width="1600" height="980" viewBox="0 0 1600 980" fill="none" xmlns="http://www.w3.org/2000/svg">
  <rect width="1600" height="980" rx="40" fill="#EEE4D5"/>
  <rect x="42" y="42" width="1516" height="896" rx="30" fill="#FFFDF8" stroke="#DDD2C1"/>
  <rect x="82" y="82" width="540" height="816" rx="28" fill="#18314E"/>
  <rect x="120" y="118" width="140" height="18" rx="9" fill="#FFC89B"/>
  <rect x="120" y="156" width="278" height="54" rx="16" fill="#FFFFFF" fill-opacity="0.08"/>
  <rect x="120" y="254" width="464" height="124" rx="22" fill="#FFFFFF" fill-opacity="0.08"/>
  <rect x="120" y="410" width="464" height="124" rx="22" fill="#FFFFFF" fill-opacity="0.08"/>
  <rect x="120" y="566" width="464" height="124" rx="22" fill="#FFFFFF" fill-opacity="0.08"/>
  <rect x="120" y="722" width="464" height="124" rx="22" fill="#FFFFFF" fill-opacity="0.08"/>
  <rect x="662" y="82" width="856" height="250" rx="28" fill="url(#paint0_linear)"/>
  <rect x="702" y="120" width="164" height="18" rx="9" fill="#D86E3D" fill-opacity="0.18"/>
  <rect x="702" y="156" width="484" height="72" rx="22" fill="#FFFFFF" fill-opacity="0.8"/>
  <rect x="702" y="370" width="410" height="528" rx="28" fill="#FFFFFF" stroke="#E2D7C7"/>
  <rect x="1142" y="370" width="376" height="528" rx="28" fill="#FFF7ED" stroke="#E2D7C7"/>
  <rect x="698" y="406" width="142" height="18" rx="9" fill="#1B2736"/>
  <rect x="1178" y="406" width="184" height="18" rx="9" fill="#1B2736"/>
  <rect x="698" y="452" width="378" height="180" rx="22" fill="#EEF3F7"/>
  <rect x="698" y="662" width="378" height="88" rx="18" fill="#F8F2E8"/>
  <rect x="698" y="768" width="378" height="88" rx="18" fill="#F8F2E8"/>
  <rect x="1178" y="452" width="304" height="68" rx="16" fill="#FFFFFF"/>
  <rect x="1178" y="544" width="304" height="68" rx="16" fill="#FFFFFF"/>
  <rect x="1178" y="636" width="304" height="68" rx="16" fill="#FFFFFF"/>
  <rect x="1178" y="728" width="304" height="128" rx="20" fill="#18314E"/>
  <circle cx="808" cy="540" r="22" fill="#D96D3C"/>
  <circle cx="898" cy="520" r="22" fill="#1F8A70"/>
  <circle cx="986" cy="490" r="22" fill="#0D6EFD"/>
  <path d="M790 590C842 562 910 558 994 476" stroke="#D96D3C" stroke-width="14" stroke-linecap="round"/>
  <defs>
    <linearGradient id="paint0_linear" x1="662" y1="82" x2="1268" y2="368" gradientUnits="userSpaceOnUse">
      <stop stop-color="#FFF6E7"/>
      <stop offset="1" stop-color="#EFE1CD"/>
    </linearGradient>
  </defs>
</svg>
