<svg width="1600" height="980" viewBox="0 0 1600 980" fill="none" xmlns="http://www.w3.org/2000/svg">
  <rect width="1600" height="980" rx="40" fill="#EFE6D6"/>
  <rect x="42" y="42" width="1516" height="896" rx="30" fill="#FFFDF8" stroke="#D9CDB7"/>
  <rect x="82" y="82" width="250" height="816" rx="24" fill="#15283F"/>
  <rect x="110" y="120" width="110" height="18" rx="9" fill="#FFCA9D"/>
  <rect x="110" y="158" width="150" height="52" rx="14" fill="#FFFFFF" fill-opacity="0.08"/>
  <rect x="110" y="236" width="194" height="18" rx="9" fill="#FFFFFF" fill-opacity="0.16"/>
  <rect x="110" y="268" width="170" height="72" rx="16" fill="#FFFFFF" fill-opacity="0.07"/>
  <rect x="110" y="360" width="170" height="72" rx="16" fill="#FFFFFF" fill-opacity="0.07"/>
  <rect x="110" y="452" width="170" height="72" rx="16" fill="#FFFFFF" fill-opacity="0.07"/>
  <rect x="372" y="82" width="1146" height="210" rx="28" fill="url(#paint0_linear)"/>
  <rect x="412" y="124" width="170" height="18" rx="9" fill="#D46C3D" fill-opacity="0.18"/>
  <rect x="412" y="160" width="470" height="72" rx="20" fill="#FFFFFF" fill-opacity="0.82"/>
  <rect x="922" y="124" width="222" height="136" rx="22" fill="#16314A" fill-opacity="0.88"/>
  <circle cx="1168" cy="160" r="24" fill="#F19A66"/>
  <rect x="1198" y="146" width="104" height="14" rx="7" fill="#FFFFFF" fill-opacity="0.75"/>
  <rect x="1198" y="172" width="82" height="12" rx="6" fill="#FFFFFF" fill-opacity="0.38"/>
  <rect x="412" y="330" width="760" height="528" rx="28" fill="#FFFFFF" stroke="#E3D8C6"/>
  <rect x="446" y="366" width="210" height="18" rx="9" fill="#192636"/>
  <rect x="446" y="404" width="690" height="414" rx="22" fill="#EEF3F7"/>
  <path d="M530 700C620 520 748 620 836 482C910 366 1012 430 1088 350" stroke="#D96D3C" stroke-width="16" stroke-linecap="round"/>
  <circle cx="604" cy="560" r="34" fill="#1F8A70" fill-opacity="0.85"/>
  <circle cx="824" cy="482" r="28" fill="#0D6EFD" fill-opacity="0.8"/>
  <circle cx="1030" cy="398" r="24" fill="#D96D3C" fill-opacity="0.78"/>
  <rect x="1204" y="330" width="314" height="250" rx="28" fill="#FFF9F2" stroke="#E3D8C6"/>
  <rect x="1238" y="366" width="138" height="18" rx="9" fill="#192636"/>
  <rect x="1238" y="408" width="246" height="44" rx="16" fill="#F5EEE4"/>
  <rect x="1238" y="470" width="246" height="44" rx="16" fill="#F5EEE4"/>
  <rect x="1238" y="532" width="246" height="18" rx="9" fill="#D96D3C" fill-opacity="0.18"/>
  <rect x="1204" y="608" width="314" height="250" rx="28" fill="#FFF9F2" stroke="#E3D8C6"/>
  <rect x="1238" y="646" width="138" height="18" rx="9" fill="#192636"/>
  <rect x="1238" y="690" width="246" height="20" rx="10" fill="#E9DED1"/>
  <rect x="1238" y="726" width="246" height="20" rx="10" fill="#E9DED1"/>
  <rect x="1238" y="762" width="246" height="20" rx="10" fill="#E9DED1"/>
  <defs>
    <linearGradient id="paint0_linear" x1="372" y1="82" x2="1162" y2="410" gradientUnits="userSpaceOnUse">
      <stop stop-color="#FFF7E9"/>
      <stop offset="1" stop-color="#F0E4D1"/>
    </linearGradient>
  </defs>
</svg>

